<svg width="100%" height="100%" viewBox="0 0 266 66" fill="none" preserveAspectRatio="none" xmlns="http://www.w3.org/2000/svg">
    <path d="M259.494 1.42552C260.456 2.17396 261.983 2.21817 262.724 3.3203C262.937 3.63293 263.845 3.6203 264.575 3.79083C264.408 4.04978 264.29 4.22979 264.161 4.42242C264.461 4.69401 264.769 4.97191 265.244 5.40139C264.484 5.50876 263.959 5.58139 263.435 5.65402C263.317 5.85929 263.199 6.06772 263.082 6.27614C262.523 6.25719 261.979 6.23509 261.368 6.21298C261.656 6.87299 261.9 7.43827 262.196 8.11407C262.496 8.14565 262.987 8.19618 263.754 8.27829C262.964 8.52145 262.432 8.68566 261.508 8.96672C262.192 9.1783 262.47 9.26673 262.861 9.38988C262.489 9.4941 262.177 9.57936 261.751 9.69936C262.006 10.0404 262.2 10.2994 262.401 10.571C262.158 10.751 261.911 10.9341 261.478 11.2562C262.071 11.4931 262.58 11.8815 262.99 11.8215C264.13 11.651 265.046 12.0299 266 12.4784C265.02 12.4531 264.035 12.4278 262.949 12.3994C262.873 12.6647 262.804 12.9078 262.721 13.2047C263.408 13.2742 263.986 13.3342 264.655 13.4036C264.18 13.9026 264.176 14.01 264.56 14.6763C264.013 14.7679 263.5 14.8531 262.964 14.9416C263.203 15.3868 263.42 15.7879 263.652 16.2237C263.435 16.2837 263.127 16.369 262.793 16.4637C263.375 16.6953 263.638 17.2448 263.579 18.1122C264.309 18.3206 265.054 18.5322 265.799 18.7469C265.799 18.8069 265.799 18.8669 265.799 18.9269C264.628 18.9743 263.462 19.0216 262.257 19.0722C262.561 20.0606 263.359 20.0101 264.396 19.8901C264.066 20.209 263.906 20.3606 263.655 20.6038C264.446 20.7585 265.187 20.9038 265.924 21.0459C265.757 21.5891 264.176 21.4122 265.004 22.388C264.005 22.9312 263.473 23.9986 262.116 24.147C261.698 24.1944 261.292 24.2986 260.87 24.4502C261.702 24.5481 262.386 24.6775 262.512 25.5302C262.538 25.7039 263.234 25.887 263.64 25.9281C264.176 25.9818 264.735 25.9028 265.384 26.0607C264.773 26.3071 264.157 26.5565 263.545 26.8029C263.902 27.9018 262.774 27.4376 262.276 27.6744C261.679 27.9587 261.17 28.3787 260.687 28.9029C261.546 28.7639 262.405 28.625 263.264 28.486C263.291 28.5271 263.313 28.565 263.34 28.606C262.318 29.0008 261.295 29.3924 260.273 29.7871C261.824 30.2956 263.207 29.465 264.67 29.7082C264.571 30.1313 263.601 30.665 261.759 31.3093C262.386 31.284 262.8 31.2682 263.215 31.2493C263.598 31.2335 263.986 31.2177 264.377 31.2019C264.769 31.8935 264.503 32.2409 263.766 32.4145C262.846 32.6324 261.922 32.8503 261.007 33.084C260.71 33.1598 260.437 33.2924 260.152 33.3967C260.186 33.4977 260.22 33.5956 260.254 33.6967C261.634 33.4788 263.017 33.2577 264.621 33.0019C263.534 33.9209 262.185 33.9209 260.999 34.3756C262.242 35.203 263.488 34.3346 264.993 34.4419C263.56 35.2756 262.341 35.983 261.067 36.7251C261.77 36.6462 262.455 36.5673 263.146 36.4883C263.473 37.3283 262.857 37.4483 262.253 37.6252C261.318 37.8999 260.216 37.9315 259.718 38.702C259.753 39.2989 259.783 39.8136 259.813 40.3252C259.312 40.6063 258.806 40.8905 258.244 41.2063C258.502 41.721 258.727 42.1884 258.974 42.6432C259.061 42.8042 259.179 43.0411 259.335 43.079C260.224 43.2779 259.981 43.6474 259.658 44.1116C259.327 44.5916 259.004 45.0969 258.852 45.6243C258.78 45.8737 258.537 46.4043 259.262 46.5022C259.35 46.5148 259.418 46.6064 259.494 46.6632C258.704 47.1969 259.962 47.9738 259.137 48.5738C258.841 48.7885 258.825 49.3285 258.787 49.7233C258.67 50.9928 258.582 52.2623 258.031 53.4749C257.932 53.6897 257.834 53.9518 257.898 54.1571C258.404 55.7329 257.248 56.9424 256.663 58.2845C256.504 58.6508 256.686 59.1245 256.709 59.5256C257.089 59.5793 257.355 59.6172 257.67 59.6614C257.564 59.813 257.514 59.9645 257.397 60.0372C256.534 60.5519 255.63 61.0225 254.801 61.5688C254.212 61.9572 253.714 61.9509 253.209 61.5688C252.221 62.3835 251.275 63.1446 249.72 62.3835C249.477 62.2635 248.915 62.5825 248.508 62.7151C247.725 62.9678 246.988 63.3309 246.084 62.9267C245.795 62.7972 245.327 62.9267 244.947 62.9709C244.005 63.0783 243.063 63.3025 242.124 63.2993C237.91 63.2899 233.692 63.2267 229.477 63.1604C228.903 63.1509 228.333 63.012 227.775 62.8541C235.048 62.6046 242.36 63.0499 249.538 61.8309C249.538 61.6951 249.538 61.5593 249.538 61.4235C248.645 61.4109 247.752 61.373 246.859 61.3888C245.358 61.4109 243.853 61.5151 242.352 61.4961C237.226 61.433 232.099 61.3414 226.977 61.2372C221.128 61.1204 215.276 61.0067 209.428 60.8361C207.459 60.7793 205.502 60.5361 203.534 60.413C202.804 60.3688 201.976 60.2551 201.353 60.4793C200.555 60.7667 200.182 59.7214 199.266 60.2803C198.712 60.6182 197.651 60.3877 196.819 60.4003C196.029 60.413 195.238 60.4003 194.448 60.4161C189.789 60.514 185.13 60.5867 180.475 60.7351C178.282 60.8046 176.101 61.0382 173.912 61.1677C171.746 61.294 169.569 61.3193 167.414 61.5056C165.404 61.6793 163.412 61.8309 161.398 61.594C161.208 61.5719 160.999 61.6983 160.794 61.7298C159.973 61.853 159.152 62.0551 158.328 62.0677C156.131 62.1056 153.935 62.052 151.738 62.052C151.081 62.052 150.397 62.2793 149.812 61.8183C149.713 61.7393 149.436 61.7014 149.341 61.7583C148.022 62.532 146.479 61.9541 145.069 62.2572C144.18 62.4467 143.173 62.2225 142.231 62.2793C138.636 62.4941 135.048 62.8288 131.45 62.9709C127.669 63.1162 123.876 63.1099 120.091 63.1351C115.516 63.1667 110.94 63.1793 106.365 63.1478C105.434 63.1414 104.507 62.8825 103.572 62.7846C103.207 62.7467 102.816 62.7941 102.455 62.8604C101.763 62.9835 101.091 63.2299 100.391 63.2836C99.0575 63.3878 97.7123 63.3815 96.3709 63.4383C90.3439 63.6941 84.3169 64.0509 78.2824 64.1804C74.8053 64.2562 71.3168 63.9941 67.8321 63.8393C63.6824 63.6562 59.5326 63.4225 55.3829 63.2141C55.1017 63.2014 54.8167 63.2078 54.5355 63.2141C50.0742 63.3057 45.6166 63.3909 41.1553 63.492C39.7987 63.5236 38.4458 63.5993 36.9524 63.6593C37.511 64.3636 38.1646 64.4299 38.9475 64.4173C43.006 64.3509 47.0645 64.2436 51.1192 64.3099C53.9313 64.3573 56.7396 64.6794 59.5516 64.8467C63.2643 65.071 66.977 65.2983 70.6973 65.4625C77.0815 65.7436 83.4657 65.5604 89.8461 65.2667C92.4416 65.1467 95.037 64.9888 97.6325 64.8531C98.6965 64.7994 99.7644 64.7646 100.828 64.7204C100.836 64.8404 100.844 64.9604 100.851 65.0804C99.8176 65.1215 98.7801 65.1657 97.7465 65.2067C94.8736 65.3204 91.9969 65.4025 89.1279 65.551C86.8972 65.6678 84.6741 65.9868 82.4435 65.9962C77.7313 66.0152 73.0154 65.9647 68.3033 65.8004C63.9142 65.6489 59.5326 65.2668 55.1435 65.0773C52.2136 64.951 49.2723 64.9699 46.3387 64.9478C44.5336 64.9352 42.721 64.9036 40.9197 64.9888C36.8612 65.1783 32.8027 65.4436 28.7442 65.6489C28.0944 65.6804 27.4369 65.5636 26.9543 65.5289C26.8669 65.1183 26.8137 64.8657 26.7339 64.5025C28.5808 64.572 30.4352 64.5025 32.5025 64.2436C31.0508 63.4667 30.9824 63.4604 26.8935 63.4067C26.5021 62.8541 26.2893 62.333 26.5211 61.5751C26.7225 60.9151 26.3919 60.1445 26.2969 59.4245C26.2665 59.1908 26.1525 58.9414 26.2171 58.7266C26.6465 57.3055 26.0537 55.9539 25.9017 54.4002C25.0999 54.3907 24.3323 54.3529 23.5684 54.375C21.8888 54.4255 20.2015 54.6055 18.5257 54.555C14.186 54.416 9.84625 54.1823 5.51033 53.9802C4.5185 53.9328 3.52667 53.8539 2.53484 53.8034C1.87363 53.7686 0.824797 52.9918 0.722194 52.376C0.646192 51.9149 0.687993 51.4412 0.672793 50.9738C0.57779 48.078 0.475187 45.1853 0.391585 42.2895C0.361184 41.2758 -0.322835 40.3 0.190179 39.2515C0.399185 38.8283 0.494188 38.361 0.600591 37.9094C0.790596 37.0915 0.969201 36.2672 1.11361 35.443C1.33021 34.1925 1.50882 32.9388 1.72542 31.6914C1.75582 31.5145 1.86223 31.2998 2.02183 31.1956C2.96426 30.5798 3.92948 29.9924 4.95931 29.3513C4.4235 28.5018 2.97186 29.8282 2.28784 28.7608C2.53104 28.6029 2.91106 28.4608 3.08586 28.2208C3.41647 27.766 3.80028 27.2671 3.85348 26.7618C3.92188 26.0892 3.68628 25.3976 3.58747 24.7123C3.56087 24.526 3.47347 24.3049 3.55707 24.1565C4.3513 22.7354 3.53047 21.308 3.53427 19.8932C3.53427 18.2985 3.62548 16.7827 4.3855 15.3079C4.78831 14.5279 5.15692 13.7289 4.3855 12.9173C4.25629 12.7784 4.30189 12.5005 4.32469 12.292C4.3893 11.6983 4.4995 11.1078 4.5641 10.5141C4.6819 9.45304 4.99351 9.16567 6.29315 8.92882C9.26103 8.38881 12.2441 7.99091 15.2956 7.9467C18.6359 7.89617 21.9724 7.70985 25.3089 7.65301C31.9781 7.54248 38.6473 7.4888 45.3164 7.39721C49.3864 7.34037 53.4601 7.26142 57.53 7.17932C58.081 7.16984 58.632 7.09721 59.1754 6.84141C56.0251 6.85089 52.8787 6.86036 49.7284 6.86668C49.7284 6.80036 49.7208 6.73404 49.7208 6.66773C50.5112 6.56667 51.2978 6.46562 52.0882 6.36772C52.073 6.25404 52.0616 6.14351 52.0464 6.02982C44.7502 6.00772 37.4502 6.1214 30.154 6.22877C22.873 6.33614 15.5844 6.28562 8.26921 6.90773C8.58081 6.80668 8.88102 6.65825 9.20403 6.6172C10.5379 6.44351 11.8869 6.33614 13.2093 6.12772C13.8136 6.03298 14.3988 5.79297 14.9498 5.54981C15.8504 5.15507 16.4736 5.9414 17.3287 5.86245C18.6663 5.73929 20.0229 5.76455 21.372 5.72034C25.6015 5.58455 29.831 5.39507 34.0643 5.3256C40.2699 5.22454 46.4755 5.23086 52.6772 5.14875C56.3937 5.09822 60.114 5.02243 63.823 4.84559C68.9455 4.60243 74.0604 4.27716 79.1754 3.94557C84.5031 3.60135 89.8271 3.19082 95.1548 2.85292C96.0783 2.79607 97.0169 2.96029 97.7693 3.01082C96.4963 3.26661 95.094 3.64872 93.6538 3.81294C92.282 3.96768 90.8987 4.20452 89.4699 3.86978C88.7745 3.70557 87.9498 3.89189 87.186 3.95189C85.1074 4.11294 83.0287 4.28663 80.95 4.46979C80.6954 4.4919 80.456 4.62137 79.9354 4.79506C80.8968 5.24033 81.6607 5.01612 82.3789 5.01296C83.4429 5.0098 84.5145 4.97506 85.5748 4.90243C87.2316 4.78559 88.8809 4.62769 90.5339 4.48558C90.7011 4.46979 90.8683 4.43821 91.0355 4.43821C93.0002 4.43505 94.961 4.46348 96.9257 4.42558C98.3621 4.39716 99.7948 4.31189 101.227 4.19505C102.717 4.07505 104.203 3.88873 105.689 3.73083C105.7 3.82241 105.715 3.91399 105.727 4.00557C105.088 4.06557 104.45 4.12557 103.811 4.18558C103.815 4.24558 103.823 4.30242 103.827 4.36242C104.803 4.32137 105.78 4.274 106.757 4.24558C111.051 4.11294 115.345 3.97083 119.643 3.85715C123.131 3.76557 126.616 3.64241 130.104 3.65188C133.597 3.66135 137.089 3.85083 140.581 3.90136C142.044 3.92346 143.511 3.79715 145.031 3.73399C145.024 3.57925 145.008 3.37082 144.989 3.03924C148.052 3.79715 151.062 4.58664 154.368 4.24558C154.231 4.13505 154.148 4.06241 153.992 3.9361C154.129 3.88241 154.269 3.85399 154.364 3.78451C155.045 3.29187 155.812 5.05401 156.454 3.72767C157.287 3.78136 158.115 3.87294 158.947 3.87925C159.848 3.88557 160.771 3.68978 161.645 3.79083C165.362 4.22347 169.075 3.98978 172.787 3.88241C173.566 3.86031 174.338 3.76557 174.866 3.72136C175.398 3.94241 175.82 4.27716 176.143 4.22031C177.545 3.97399 179.061 4.45716 180.399 3.75925C180.551 3.6803 181.071 3.80662 181.136 3.93294C181.546 4.77295 182.413 4.58348 183.169 4.59611C185.977 4.64664 188.778 4.77927 191.598 4.50769C193.505 4.32452 195.466 4.49821 197.4 4.514C197.514 4.514 197.655 4.54242 197.735 4.49821C199.612 3.45609 201.71 4.24873 203.693 4.03399C205.734 3.80978 207.832 3.94241 209.903 3.92031C210.127 3.92031 210.416 4.00873 210.56 3.92031C211.936 3.08661 213.456 3.49714 214.949 3.49082C217.56 3.48135 220.171 3.40556 222.778 3.29503C230.184 2.98239 237.587 2.59081 244.997 2.32238C249.226 2.1708 253.467 2.19922 257.704 2.14238C258.035 2.13922 258.369 2.09501 258.958 2.04764C257.742 1.40973 256.583 1.45079 255.512 1.42868C252.643 1.37499 249.766 1.39078 246.893 1.48236C239.658 1.70974 232.426 1.99711 225.194 2.25922C222.732 2.34764 220.258 2.59397 217.807 2.48975C215.835 2.40765 213.923 2.61923 211.989 2.75502C211.609 2.78028 211.115 2.82134 210.853 2.65712C209.447 1.77605 208.288 2.12659 207.068 2.95713C206.699 3.20661 206.027 3.20977 205.491 3.2224C202.348 3.28556 199.206 3.31398 196.063 3.35503C196.048 3.45925 196.032 3.56662 196.021 3.67083C196.321 3.74662 196.625 3.82557 196.876 3.88873C196.572 3.91715 196.165 3.88873 195.823 4.00557C195.124 4.23926 195.234 3.63609 194.927 3.48135C194.801 3.41819 194.543 3.40872 194.44 3.47503C193.46 4.1161 192.4 3.70241 191.355 3.70557C189.264 3.71504 187.178 3.84767 185.088 3.92978C184.127 3.96768 183.165 4.00873 182.173 4.04663C182.873 3.24766 182.979 3.11819 183.386 3.13398C184.051 3.1624 184.784 3.1024 185.362 3.31398C185.863 3.49714 186.198 3.49398 186.73 3.43082C188.197 3.25398 189.694 3.26977 191.267 3.20661C191.313 3.08345 191.4 2.84029 191.488 2.59397C192.217 2.56554 192.894 2.53712 193.771 2.50238C193.422 2.74555 193.209 2.89713 192.897 3.11503C193.517 3.4624 194.167 3.33293 194.904 3.39293C194.87 3.08029 194.839 2.84344 194.801 2.49607C195.143 2.51186 195.592 2.42344 195.728 2.55607C196.732 3.52556 198.081 3.30135 198.94 2.78028C199.817 2.24975 200.646 2.3287 201.505 2.26238C202.424 2.18975 203.382 1.97185 204.263 2.58449C204.499 2.74871 205.442 2.60976 205.575 2.39817C205.932 1.83606 206.468 1.88974 207.011 1.86448C208.478 1.80132 209.948 1.76658 211.419 1.70658C212.308 1.66868 213.163 1.58974 214.026 1.99711C214.421 2.18343 215.079 2.04764 215.599 1.96553C216.458 1.8329 217.264 1.46973 218.176 1.93711C218.506 2.10448 219.053 1.97816 219.498 1.99395C220.574 2.03185 221.63 1.5171 222.743 1.95606C222.945 2.03501 223.336 1.74763 223.655 1.66868C223.91 1.60553 224.286 1.49815 224.442 1.59289C225.764 2.41396 226.943 1.92448 228.159 1.41289C228.516 1.26447 228.987 1.16341 229.367 1.22341C230.492 1.40342 231.651 1.14446 232.787 1.60868C233.395 1.85816 234.452 1.9908 234.984 1.13815C235.037 1.05288 235.402 1.09078 235.622 1.09709C235.953 1.10973 235.785 1.76974 236.31 1.50131C236.686 1.30868 236.952 0.885511 237.336 0.80972C238.236 0.632875 239.175 0.553926 240.106 0.519188C245.384 0.320237 250.667 0.0391792 255.949 0.00444169C258.955 -0.017664 262.01 0.0139155 264.845 0.793931C264.142 1.26762 264.142 1.27078 263.424 1.26131C262.177 1.24552 260.931 1.22973 259.688 1.21078C258.518 0.339185 257.104 0.733929 255.759 0.752877C257.009 0.977092 258.259 1.20131 259.506 1.42236L259.494 1.42552ZM151.788 5.52455C150.188 5.27507 148.9 5.32244 147.71 5.79929C149.314 5.64455 150.614 6.13719 151.83 5.48665C151.917 5.66034 152.027 5.99193 152.084 5.98561C153.042 5.8814 153.992 5.73297 154.942 5.59718C154.938 5.57823 154.93 5.55613 154.927 5.53718L151.792 5.52455H151.788ZM224.651 58.6887C224.97 59.2982 225.609 59.0424 226.129 59.0456C228.041 59.0614 229.952 59.0866 231.864 59.0456C234.034 58.9951 236.203 58.8782 238.373 58.7898C237.989 58.6477 237.571 58.5277 237.157 58.5308C235.265 58.5466 233.369 58.635 231.476 58.6224C229.405 58.6066 227.33 58.4992 225.259 58.4614C225.061 58.4582 224.86 58.6382 224.662 58.7329C224.058 58.6319 223.462 58.4708 222.854 58.4456C221.182 58.3729 219.502 58.3445 217.826 58.3256C212.772 58.2656 207.741 57.8424 202.686 57.7192C198.259 57.6119 193.836 57.9435 189.397 57.5361C186.954 57.3119 184.408 57.7887 181.915 57.9971C180.817 58.0887 179.578 58.6477 178.685 58.3698C177.579 58.0256 176.606 58.2245 175.584 58.1929C174.303 58.1519 173.011 58.1771 171.735 58.2624C170.731 58.3287 169.747 58.594 168.744 58.6603C167.011 58.774 165.282 58.9382 163.53 58.875C162.212 58.8277 160.881 59.0393 159.555 59.0645C155.231 59.1529 150.902 59.1656 146.582 59.2919C144.017 59.3677 141.459 59.674 138.89 59.7593C132.597 59.9709 126.301 60.1288 120.004 60.2772C115.63 60.3814 111.256 60.4319 106.886 60.5046C104.602 60.5424 102.314 60.5519 100.03 60.6088C98.4039 60.6498 96.7813 60.7351 95.1586 60.833C94.7596 60.8582 94.372 61.0067 93.9768 61.0982C93.9958 61.1993 94.011 61.3035 94.03 61.4046C95.1358 61.3604 96.2417 61.294 97.3475 61.2719C101.809 61.1835 106.27 61.0951 110.735 61.0319C112.252 61.0098 113.768 61.0572 115.28 61.0951C116.283 61.1204 117.287 61.2246 118.29 61.2277C119.62 61.234 120.946 61.1772 122.276 61.1425C124.606 61.0825 126.935 61.0509 129.261 60.9467C132.335 60.8109 135.406 60.6214 138.476 60.454C138.533 60.454 138.59 60.454 138.647 60.454C140.433 60.4382 142.219 60.4477 144.005 60.4003C144.731 60.3814 145.453 60.1698 146.179 60.1603C148.14 60.1319 150.101 60.1888 152.061 60.1698C154.82 60.1445 157.583 60.1193 160.342 60.0182C162.2 59.9519 164.047 59.7498 165.901 59.6203C169.105 59.3929 172.316 59.2351 175.508 58.9319C179.582 58.5466 183.667 58.7266 187.748 58.6098C189.667 58.5561 191.586 58.4866 193.505 58.4329C194.239 58.4108 194.976 58.3887 195.709 58.4108C197.777 58.4708 199.859 58.7171 201.907 58.5908C204.518 58.4298 207.102 58.5908 209.694 58.6445C213.688 58.7329 217.678 58.9193 221.672 58.9982C222.66 59.0172 223.659 58.7993 224.651 58.6887ZM213.813 59.9487C213.817 59.8382 213.825 59.7277 213.828 59.614C213.239 59.5572 212.654 59.4719 212.065 59.4498C211.107 59.4151 210.15 59.4498 209.192 59.4119C205.274 59.2603 201.36 59.0203 197.438 58.9572C193.874 58.9003 190.306 59.0108 186.737 59.0866C183.876 59.1466 181.014 59.254 178.153 59.3677C177.902 59.3772 177.663 59.5887 177.283 59.7751C177.598 59.8351 177.708 59.873 177.815 59.8698C182.603 59.7751 187.395 59.6898 192.183 59.5666C192.844 59.5508 193.543 59.1656 194.148 59.2698C196.777 59.7214 199.422 59.3329 202.052 59.4624C203.838 59.5508 205.647 59.2445 207.406 59.7814C207.813 59.9045 208.299 59.8414 208.751 59.8603C209.979 59.9109 211.206 59.9709 212.434 60.0024C212.894 60.0151 213.353 59.9709 213.813 59.9519V59.9487ZM139.384 61.1709C139.396 61.2846 139.403 61.3951 139.415 61.5088C144.587 61.2972 149.755 61.0888 155.048 60.874C154.843 60.7288 154.763 60.6277 154.684 60.6277C151.374 60.6593 148.064 60.634 144.761 60.7698C143.382 60.8267 142.018 61.1046 140.612 60.9688C140.216 60.9309 139.791 61.0982 139.38 61.1709H139.384ZM66.4412 5.51192C70.6479 5.35718 74.8775 5.64771 79.05 4.91822C74.8205 4.68453 70.6327 5.10454 66.4412 5.51192ZM234.083 4.6119C235.975 4.24873 237.754 3.91083 239.528 3.56977C238.54 3.49714 237.552 3.52872 236.568 3.58556C236.374 3.59504 236.158 3.66451 236.013 3.76557C235.884 3.85715 235.835 4.03084 235.751 4.16979C235.554 4.0561 235.367 3.93294 235.162 3.83188C234.995 3.74978 234.809 3.62977 234.634 3.63609C232.783 3.69609 230.936 3.7782 229.021 3.85399C229.618 4.72874 229.96 4.85506 230.484 4.44769C230.594 4.36242 230.655 4.10031 230.686 4.10663C230.914 4.15084 231.176 4.19821 231.339 4.32452C231.841 4.71611 232.133 4.68453 232.589 4.20452C233.061 3.70872 233.802 3.88241 234.087 4.60558L234.083 4.6119ZM89.4395 61.3509C88.174 61.1488 86.9656 61.4898 85.7268 61.6098C84.5145 61.7267 83.2795 61.7772 82.0635 61.7172C80.4446 61.6351 79.4528 61.654 78.4686 62.0077C79.9772 62.2888 87.186 61.9414 89.4357 61.3477L89.4395 61.3509ZM223.207 60.3088C221.242 59.614 215.987 59.4024 214.425 59.9709C217.351 60.0845 220.281 60.1951 223.207 60.3088ZM165.13 60.6435L165.103 60.4445C163.956 60.4161 162.804 60.3498 161.657 60.3719C160.547 60.394 159.445 60.5109 158.339 60.5835C158.351 60.694 158.362 60.8046 158.373 60.9151C160.627 60.8235 162.877 60.7319 165.13 60.6403V60.6435ZM127.053 61.7362C130.26 62.1877 133.407 61.6477 136.568 61.3509C133.395 61.4804 130.226 61.6098 127.053 61.7362ZM119.187 61.7456C119.198 61.8435 119.213 61.9414 119.225 62.0393C120.695 62.3298 122.907 62.2793 124.856 61.7551C122.968 61.7551 121.075 61.7488 119.187 61.7488V61.7456ZM161.03 5.30033C160.308 4.98138 159.335 4.81401 159.259 5.11086C159.046 5.95403 158.392 5.50244 157.959 5.58455C157.374 5.69192 156.762 5.70455 156.158 5.75508C156.185 5.87824 156.207 6.0014 156.234 6.12772C157.784 6.00456 159.388 6.17509 161.03 5.30349V5.30033ZM163.097 5.11717C165.521 5.89719 166.585 5.92561 167.801 5.23717C166.251 4.82348 164.856 5.02559 163.097 5.11717ZM166.24 60.2298L166.259 60.5551C167.657 60.6214 169.048 60.6151 170.735 60.0466C168.968 60.1193 167.6 60.173 166.236 60.2298H166.24ZM171.754 59.7561V60.0814C173.262 60.0214 174.771 59.9582 176.496 59.8887C174.763 59.134 173.258 59.6014 171.754 59.7561ZM242.337 4.10978C241.904 3.92978 241.436 3.84452 241.413 3.71188C241.33 3.20661 240.76 3.38345 240.722 3.4624C240.368 4.16979 239.468 3.86346 238.928 4.25189C240.011 4.20768 241.09 4.16347 242.341 4.11294L242.337 4.10978ZM183.238 55.8466C183.253 55.9855 183.264 56.1213 183.279 56.2603C184.29 56.1308 185.339 56.3266 186.669 55.8813C185.271 55.8687 184.252 55.8592 183.238 55.8497V55.8466ZM237.48 60.0909C237.48 60.1635 237.473 60.233 237.473 60.3056C238.772 60.3561 240.072 60.4067 241.368 60.4572C241.368 60.4067 241.372 60.353 241.375 60.3024C240.079 60.233 238.78 60.1603 237.484 60.0909H237.48ZM220.308 53.6834C220.323 53.7434 220.334 53.8034 220.349 53.8634C221.546 53.9202 222.74 53.9802 223.937 54.0371C223.937 53.9549 223.944 53.8697 223.948 53.7876C222.736 53.7528 221.524 53.7181 220.311 53.6834H220.308ZM53.0915 6.15614C53.1067 6.23193 53.1181 6.31088 53.1333 6.38667C53.8059 6.32351 54.4785 6.26351 55.1511 6.20035C55.1359 6.10245 55.1169 6.0014 55.1017 5.9035C54.4329 5.98561 53.7603 6.07087 53.0915 6.15298V6.15614ZM217.062 4.42874C217.062 4.45716 217.062 4.48558 217.066 4.514L220.186 4.38768C220.186 4.35926 220.186 4.33084 220.182 4.30242C219.141 4.34347 218.103 4.38768 217.062 4.42874ZM115.713 61.9288C116.99 62.2362 117.852 62.2014 118.297 61.8246C117.48 61.8593 116.743 61.8877 115.713 61.9288ZM63.4733 6.77826C63.4733 6.74352 63.4695 6.70878 63.4657 6.67089C62.4473 6.71194 61.4251 6.75299 60.4067 6.79405C60.4067 6.82878 60.4105 6.86352 60.4143 6.90142C61.4327 6.86036 62.4549 6.81931 63.4733 6.77826ZM129.018 55.6666C129.002 55.6066 128.991 55.5434 128.976 55.4834C128.178 55.515 127.38 55.5497 126.582 55.5813C126.586 55.6445 126.589 55.7045 126.597 55.7676C127.406 55.736 128.212 55.7013 129.021 55.6697L129.018 55.6666ZM144.799 57.7255C144.799 57.6971 144.799 57.6655 144.803 57.6371C144.188 57.6308 143.576 57.6245 142.96 57.6213C142.96 57.6813 142.96 57.7413 142.96 57.8045C143.572 57.7792 144.188 57.754 144.799 57.7287V57.7255ZM244.142 60.1445C244.127 60.1761 244.111 60.2109 244.096 60.2456C244.738 60.2203 245.381 60.1919 246.023 60.1666C246.023 60.1351 246.023 60.1003 246.019 60.0688C245.392 60.094 244.769 60.1193 244.142 60.1445ZM149.671 57.3403C149.683 57.4066 149.694 57.4729 149.705 57.5392C150.154 57.5203 150.602 57.5013 151.047 57.4855C151.035 57.394 151.024 57.3024 151.013 57.2076C150.564 57.2519 150.12 57.2961 149.671 57.3403ZM213.517 53.396L213.471 53.6834C213.939 53.6644 214.406 53.6455 214.873 53.6265C214.873 53.5728 214.877 53.5223 214.881 53.4686C214.425 53.4434 213.969 53.4181 213.517 53.396ZM210.716 53.3107C209.838 53.2918 209.329 53.2791 208.82 53.2697C208.816 53.3676 208.812 53.4623 208.808 53.5602C209.321 53.5034 209.815 53.9171 210.72 53.3107H210.716ZM201.725 2.42659C202.181 2.6666 202.559 2.65081 202.857 2.37922C202.417 2.39817 202.071 2.4108 201.725 2.42659ZM206.73 53.1181C206.73 53.2191 206.73 53.3234 206.726 53.4244C207.102 53.4686 207.475 53.5128 207.851 53.557C207.866 53.4718 207.885 53.3865 207.9 53.3044C207.509 53.2412 207.121 53.1813 206.73 53.1181ZM162.595 30.0934C162.55 29.9892 162.504 29.885 162.462 29.784C162.242 29.8629 162.01 29.9261 161.809 30.0303C161.778 30.0461 161.888 30.2513 161.934 30.3682C162.154 30.2766 162.375 30.185 162.595 30.0934ZM233.992 60.1098C234.003 60.1824 234.015 60.2582 234.026 60.3309C234.379 60.3151 234.733 60.3024 235.086 60.2866C235.082 60.2488 235.079 60.2109 235.071 60.173C234.71 60.1509 234.353 60.1288 233.992 60.1067V60.1098ZM135.599 55.3445C135.603 55.4139 135.611 55.4834 135.615 55.556C135.892 55.5434 136.169 55.5339 136.451 55.5213C136.447 55.4518 136.443 55.3823 136.439 55.3097C136.162 55.3223 135.881 55.3318 135.603 55.3445H135.599ZM250.439 4.0182C250.454 3.96452 250.469 3.91399 250.488 3.86031C250.15 3.86031 249.812 3.86031 249.473 3.85715C249.473 3.9361 249.477 4.01505 249.481 4.09715C249.8 4.07189 250.123 4.04663 250.442 4.0182H250.439ZM91.3699 61.2088C91.3319 61.2719 91.2939 61.3351 91.2597 61.4014C91.7689 61.3793 92.2744 61.3604 92.7836 61.3383C92.7836 61.2751 92.776 61.2151 92.776 61.1519C92.3086 61.1709 91.8411 61.1898 91.3737 61.2088H91.3699ZM165.863 4.51716C165.848 4.54242 165.833 4.56453 165.822 4.58979C166.114 4.57716 166.407 4.56453 166.699 4.55506C166.422 4.54242 166.145 4.52979 165.867 4.51716H165.863Z" fill="#E5281F"/>
</svg>